<?xml version="1.0" standalone="no"?>
<!DOCTYPE svg PUBLIC "-//W3C//DTD SVG 20010904//EN"
 "http://www.w3.org/TR/2001/REC-SVG-20010904/DTD/svg10.dtd">
<svg version="1.0" xmlns="http://www.w3.org/2000/svg"
 width="64.000000pt" height="64.000000pt" viewBox="0 0 64.000000 64.000000"
 preserveAspectRatio="xMidYMid meet">
<metadata>
Created by potrace 1.10, written by Peter Selinger 2001-2011
</metadata>
<g transform="translate(0.000000,64.000000) scale(0.100000,-0.100000)"
fill="#c80af7" stroke="blue">
<path d="M87 482 c-14 -16 -17 -43 -17 -170 0 -207 -19 -192 250 -192 270 0
250 -15 250 193 0 136 -2 156 -18 170 -16 15 -48 17 -234 17 -195 0 -216 -2
-231 -18z m253 -12 c-9 -17 -22 -20 -78 -22 -37 -1 -83 -3 -102 -3 -30 -1 -35
-5 -35 -26 0 -31 -29 -32 -33 -1 -2 13 5 33 15 44 15 17 27 19 68 15 28 -2 59
-1 70 4 11 4 39 8 63 8 40 1 42 0 32 -19z m68 -12 c6 -23 26 -28 90 -24 29 1
55 -1 58 -6 3 -4 -91 -7 -208 -7 -142 1 -196 4 -163 9 28 5 71 9 96 9 32 1 51
7 63 20 22 24 57 23 64 -1z m58 11 c10 -17 -13 -36 -27 -22 -12 12 -4 33 11
33 5 0 12 -5 16 -11z m60 0 c10 -17 -13 -36 -27 -22 -12 12 -4 33 11 33 5 0
12 -5 16 -11z m26 -86 c2 -16 -3 -36 -13 -48 -13 -15 -18 -42 -20 -107 l-3
-88 -120 2 -121 2 113 3 c142 5 150 23 9 23 -86 0 -107 -3 -120 -17 -13 -15
-29 -17 -86 -15 -43 2 -69 7 -65 13 3 6 -2 9 -12 7 -17 -3 -19 5 -22 59 -2 52
1 66 18 83 11 11 20 30 20 43 0 12 3 32 6 44 6 21 9 22 209 23 l204 1 3 -28z
m-432 -27 c0 -22 -27 -62 -36 -53 -2 1 -1 20 3 40 6 42 33 52 33 13z m422
-192 c-16 -29 -18 -2 -7 86 l10 85 3 -78 c2 -42 -1 -85 -6 -93z"/>
<path d="M181 364 c-12 -15 -21 -23 -21 -18 0 4 -7 -1 -15 -12 -24 -32 -17
-59 25 -98 41 -37 67 -45 87 -25 8 8 13 8 17 0 4 -6 16 -11 27 -11 22 0 52 24
43 33 -4 3 1 28 11 56 11 35 20 48 31 44 7 -3 11 -10 7 -17 -3 -6 -3 -8 1 -4
5 4 14 1 21 -5 11 -10 9 -17 -12 -39 -28 -29 -28 -61 0 -66 36 -7 107 59 107
98 0 6 -16 28 -36 50 -39 43 -76 52 -93 23 -10 -17 -10 -17 -11 0 0 28 -57 23
-65 -5 -3 -13 -13 -46 -22 -75 l-17 -51 -27 25 c-26 25 -26 27 -9 46 10 10 23
16 29 13 10 -6 6 38 -5 56 -11 17 -53 7 -73 -18z m65 5 c3 -6 -8 -25 -25 -43
l-31 -32 32 -32 c25 -25 30 -34 20 -44 -9 -9 -20 -5 -49 18 -62 51 -64 60 -16
104 44 42 57 47 69 29z m109 1 c8 -12 -32 -147 -46 -156 -25 -15 -30 14 -13
72 25 89 42 112 59 84z m106 -29 c50 -45 49 -54 -14 -105 -29 -23 -40 -27 -49
-18 -9 9 -5 20 20 45 l32 33 -31 31 c-28 27 -32 53 -10 53 5 0 28 -18 52 -39z"/>
<path d="M187 50 c-87 -15 -77 -33 21 -37 37 -1 59 0 50 3 -42 13 -12 24 61
24 75 0 113 -12 74 -24 -10 -3 10 -4 44 -2 59 2 83 9 71 21 -21 21 -226 31
-321 15z"/>
</g>
</svg>
